<?xml version="1.0" encoding="utf-8"?>
<!-- Svg Vector Icons : http://www.onlinewebfonts.com/icon -->
<!DOCTYPE svg PUBLIC "-//W3C//DTD SVG 1.1//EN" "http://www.w3.org/Graphics/SVG/1.1/DTD/svg11.dtd">
<svg version="1.1" xmlns="http://www.w3.org/2000/svg" xmlns:xlink="http://www.w3.org/1999/xlink" x="0px" y="0px" viewBox="0 0 1000 1000" enable-background="new 0 0 1000 1000" xml:space="preserve">
<metadata> Svg Vector Icons : http://www.onlinewebfonts.com/icon </metadata>
<g><path d="M500,990C229.9,990,10,770.2,10,500C10,229.8,229.9,10,500,10c270.3,0,490,219.8,490,490C990,770.2,770.3,990,500,990L500,990z M500,92.7C275.4,92.7,92.7,275.4,92.7,500c0,224.6,182.7,407.3,407.3,407.3c224.6,0,407.3-182.7,407.3-407.3C907.3,275.4,724.6,92.7,500,92.7L500,92.7z"/><path d="M699.7,252.1l54.8,54.8l-433,433l-54.8-54.8L699.7,252.1z"/><path d="M754.6,685.1L699.7,740l-433-433l54.8-54.8L754.6,685.1z"/></g>
</svg>