<?xml version="1.0" encoding="utf-8"?>
<!-- Generator: Adobe Illustrator 23.1.0, SVG Export Plug-In . SVG Version: 6.00 Build 0)  -->
<svg version="1.1" id="Layer_1" xmlns="http://www.w3.org/2000/svg" xmlns:xlink="http://www.w3.org/1999/xlink" x="0px" y="0px"
	 viewBox="0 0 1000 1000" style="enable-background:new 0 0 1000 1000;" xml:space="preserve">
<g>
	<path d="M500,990C229.9,990,10,770.2,10,500S229.9,10,500,10c270.3,0,490,219.8,490,490S770.3,990,500,990L500,990z M500,92.7
		C275.4,92.7,92.7,275.4,92.7,500S275.4,907.3,500,907.3S907.3,724.6,907.3,500S724.6,92.7,500,92.7L500,92.7z"/>
	<path d="M732,305.6L418,625.4L262.4,512.8c-19.7-14.3-47.4-9.9-61.7,9.9c-14.3,19.8-9.9,47.4,9.9,61.7L397,719.3
		c7.8,5.6,16.9,8.4,25.9,8.4c11.5,0,23-4.5,31.5-13.2l340.6-347c17.1-17.4,16.8-45.4-0.6-62.5C777,287.9,749,288.2,732,305.6z"/>
</g>
</svg>
